<?xml version="1.0" standalone="no"?>
<!DOCTYPE svg PUBLIC "-//W3C//DTD SVG 20010904//EN"
 "http://www.w3.org/TR/2001/REC-SVG-20010904/DTD/svg10.dtd">
<svg version="1.0" xmlns="http://www.w3.org/2000/svg"
 width="512.000000pt" height="512.000000pt" viewBox="0 0 512.000000 512.000000"
 preserveAspectRatio="xMidYMid meet">
<metadata>
Created by potrace 1.11, written by Peter Selinger 2001-2013
</metadata>
<g transform="translate(0.000000,512.000000) scale(0.100000,-0.100000)"
fill="#000000" stroke="none">
<path d="M593 4393 l-53 -4 0 -1483 0 -1483 148 -7 c502 -23 889 -114 1269
-296 119 -57 363 -202 363 -216 0 -2 -434 -4 -965 -4 l-965 0 -2 1574 -3 1574
-24 26 c-33 35 -92 36 -126 1 l-25 -24 0 -1666 0 -1665 2350 0 2350 0 0 1665
0 1666 -25 24 c-34 35 -93 34 -126 -1 l-24 -26 -3 -1574 -2 -1574 -967 0
c-569 0 -963 4 -957 9 29 28 210 137 311 189 280 142 575 232 918 282 147 21
377 40 483 40 l62 0 0 1484 0 1483 -74 6 c-86 8 -311 -7 -444 -28 -532 -86
-1033 -331 -1395 -684 l-107 -104 -103 99 c-440 431 -1063 693 -1702 717 -60
2 -134 2 -162 0z m367 -194 c217 -27 509 -109 710 -199 266 -120 505 -284 708
-487 l92 -92 0 -1202 c0 -1182 0 -1201 -19 -1188 -456 327 -954 501 -1578 551
l-153 12 0 1314 0 1314 78 -6 c42 -4 115 -12 162 -17z m3440 -1292 l0 -1313
-154 -12 c-616 -49 -1124 -226 -1577 -551 -19 -13 -19 6 -19 1188 l0 1201 94
94 c314 313 703 529 1151 636 138 33 346 64 463 68 l42 2 0 -1313z"/>
<path d="M926 3754 c-28 -29 -34 -70 -15 -106 14 -26 68 -48 119 -48 222 0
686 -202 1065 -464 60 -42 118 -76 128 -76 60 0 105 63 86 120 -20 57 -442
321 -689 431 -218 98 -475 169 -608 169 -51 0 -63 -4 -86 -26z"/>
<path d="M926 3287 c-34 -34 -35 -84 -3 -119 20 -21 36 -27 102 -33 290 -27
697 -205 1070 -468 112 -79 147 -88 189 -48 32 30 40 65 22 99 -15 30 -211
168 -370 261 -325 191 -661 315 -888 328 -94 6 -97 5 -122 -20z"/>
<path d="M954 2840 c-57 -23 -70 -95 -26 -139 23 -24 38 -29 106 -35 284 -26
696 -209 1086 -483 88 -62 131 -69 170 -28 30 32 32 85 5 115 -27 29 -278 196
-410 271 -277 158 -570 268 -798 298 -91 13 -105 13 -133 1z"/>
<path d="M931 2352 c-38 -37 -41 -80 -8 -117 19 -23 34 -28 107 -36 294 -33
625 -173 1003 -426 183 -122 206 -130 253 -89 37 31 38 84 4 121 -26 28 -229
165 -361 243 -125 75 -378 195 -499 237 -142 49 -288 84 -387 91 -81 7 -82 7
-112 -24z"/>
<path d="M3940 3759 c-289 -60 -593 -200 -947 -435 -186 -124 -203 -143 -181
-204 10 -31 52 -60 85 -60 10 0 68 34 128 76 160 110 321 204 486 283 212 103
462 181 579 181 51 0 105 22 119 48 19 36 13 77 -15 106 -24 23 -34 26 -93 25
-36 0 -109 -9 -161 -20z"/>
<path d="M3936 3290 c-296 -63 -619 -213 -974 -453 -81 -55 -139 -102 -148
-119 -18 -34 -10 -69 22 -99 41 -39 78 -31 174 38 373 265 795 452 1084 478
67 6 83 12 103 33 31 34 31 85 -2 117 -21 22 -32 25 -97 24 -40 0 -113 -9
-162 -19z"/>
<path d="M4005 2836 c-230 -38 -504 -143 -770 -295 -135 -77 -383 -242 -410
-271 -27 -30 -25 -83 5 -115 44 -47 71 -37 269 93 363 240 734 397 990 419 65
5 80 10 103 34 35 34 37 78 5 114 -28 34 -80 39 -192 21z"/>
<path d="M4009 2369 c-291 -42 -708 -231 -1074 -485 -113 -78 -129 -96 -129
-141 0 -26 7 -42 28 -59 47 -41 73 -33 224 70 381 260 733 412 1032 445 73 8
88 13 107 36 32 37 30 80 -6 116 -32 32 -67 35 -182 18z"/>
</g>
</svg>
